<?xml version="1.0" standalone="no"?>
<!DOCTYPE svg PUBLIC "-//W3C//DTD SVG 20010904//EN"
 "http://www.w3.org/TR/2001/REC-SVG-20010904/DTD/svg10.dtd">
<svg version="1.0" xmlns="http://www.w3.org/2000/svg"
 width="225.000000pt" height="225.000000pt" viewBox="0 0 225.000000 225.000000"
 preserveAspectRatio="xMidYMid meet">
<metadata>
Created by potrace 1.14, written by Peter Selinger 2001-2017
</metadata>
<g transform="translate(0.000000,225.000000) scale(0.100000,-0.100000)"
fill="#000000" stroke="none">
<path d="M0 1125 l0 -1125 1125 0 1125 0 0 1125 0 1125 -1125 0 -1125 0 0
-1125z m830 -35 l0 -40 295 0 295 0 0 40 0 40 50 0 51 0 -3 -132 -3 -133 -47
-3 -48 -3 0 45 0 46 -295 0 -295 0 0 -45 0 -45 -50 0 -50 0 0 135 0 135 50 0
50 0 0 -40z m-142 -102 l-3 -83 -47 -3 -48 -3 0 85 0 86 50 0 51 0 -3 -82z
m972 -4 l0 -85 -47 3 -48 3 -3 83 -3 82 51 0 50 0 0 -86z"/>
</g>
</svg>
